<mxfile host="app.diagrams.net" modified="2023-08-11T17:59:53.462Z" agent="Mozilla/5.0 (Macintosh; Intel Mac OS X 10_15_7) AppleWebKit/537.36 (KHTML, like Gecko) Chrome/115.0.0.0 Safari/537.36" version="21.6.8" etag="NtJOQyGLkI3BTSoWOZ6l" type="github">
  <diagram name="Page-1" id="L82ulNSv8COWt4JgpPmL">
    <mxGraphModel>
      <root>
        <mxCell id="0" />
        <mxCell id="1" parent="0" />
      </root>
    </mxGraphModel>
  </diagram>
</mxfile>
